<svg width="50" height="50" viewBox="0 0 50 50" fill="none" xmlns="http://www.w3.org/2000/svg">
<path d="M19.031 43.2778V36.9075C19.031 35.2814 20.3589 33.9631 21.9969 33.9631H27.9848C28.7714 33.9631 29.5258 34.2733 30.082 34.8255C30.6382 35.3777 30.9507 36.1266 30.9507 36.9075V43.2778C30.9457 43.9538 31.2128 44.6039 31.6926 45.0837C32.1724 45.5635 32.8253 45.8333 33.5063 45.8333H37.5915C39.4994 45.8382 41.3309 45.0892 42.6818 43.7516C44.0326 42.4141 44.7918 40.5978 44.7918 38.7038V20.5559C44.7918 19.0259 44.1086 17.5746 42.9264 16.593L29.0294 5.57469C26.612 3.6428 23.1483 3.70517 20.8031 5.72283L7.2231 16.593C5.98504 17.5457 5.24506 19.0013 5.2085 20.5559V38.6852C5.2085 42.633 8.43221 45.8333 12.4089 45.8333H16.4008C17.8152 45.8333 18.9647 44.7004 18.975 43.2963L19.031 43.2778Z" fill="#222222"/>
</svg>
