<svg width="50" height="50" viewBox="0 0 50 50" fill="none" xmlns="http://www.w3.org/2000/svg">
<path fill-rule="evenodd" clip-rule="evenodd" d="M20.6151 23.3959C19.7037 23.3959 18.983 24.1042 18.983 25C18.983 25.875 19.7037 26.6042 20.6151 26.6042H33.3332V36.5625C33.3332 41.6667 29.115 45.8334 23.9006 45.8334H13.5778C8.38465 45.8334 4.1665 41.6875 4.1665 36.5834V13.4375C4.1665 8.31252 8.40585 4.16669 13.599 4.16669H23.943C29.115 4.16669 33.3332 8.31252 33.3332 13.4167V23.3959H20.6151ZM40.8958 17.7921L46.9792 23.8546C47.2917 24.1671 47.4584 24.5629 47.4584 25.0004C47.4584 25.4171 47.2917 25.8337 46.9792 26.1254L40.8958 32.1879C40.5833 32.5004 40.1667 32.6671 39.7708 32.6671C39.3542 32.6671 38.9375 32.5004 38.625 32.1879C38 31.5629 38 30.5421 38.625 29.9171L41.9583 26.6046H33.3333V23.3962H41.9583L38.625 20.0837C38 19.4587 38 18.4379 38.625 17.8129C39.25 17.1671 40.2708 17.1671 40.8958 17.7921Z" fill="#222222"/>
</svg>
