<svg width="50" height="50" viewBox="0 0 50 50" fill="none" xmlns="http://www.w3.org/2000/svg">
<path d="M25.0002 45.8334C27.2918 45.8334 29.1668 43.9584 29.1668 41.6667H20.8335C20.8335 43.9584 22.7085 45.8334 25.0002 45.8334ZM37.5002 33.3334V22.9167C37.5002 16.5209 34.1043 11.1667 28.1252 9.75004V8.33337C28.1252 6.60421 26.7293 5.20837 25.0002 5.20837C23.271 5.20837 21.8752 6.60421 21.8752 8.33337V9.75004C15.9168 11.1667 12.5002 16.5 12.5002 22.9167V33.3334L8.3335 37.5V39.5834H41.6668V37.5L37.5002 33.3334ZM33.3335 35.4167H16.6668V22.9167C16.6668 17.75 19.8127 13.5417 25.0002 13.5417C30.1877 13.5417 33.3335 17.75 33.3335 22.9167V35.4167Z" fill="#222222"/>
<path d="M24.9998 13.5416C19.8123 13.5416 16.6665 17.75 16.6665 22.9166V35.4166H33.3332V22.9166C33.3332 17.75 30.1873 13.5416 24.9998 13.5416Z" fill="#222222"/>
</svg>
