<svg width="189" height="41" viewBox="0 0 189 41" fill="none" xmlns="http://www.w3.org/2000/svg">
<path d="M20.5 39C30.7173 39 39 30.7173 39 20.5C39 10.2827 30.7173 2 20.5 2C10.2827 2 2 10.2827 2 20.5C2 30.7173 10.2827 39 20.5 39Z" stroke="white" stroke-width="4" stroke-linecap="round" stroke-linejoin="round"/>
<path d="M24.7735 13.1L35.3925 31.489" stroke="white" stroke-width="4" stroke-linecap="round" stroke-linejoin="round"/>
<path d="M16.2265 13.1H37.4645" stroke="white" stroke-width="4" stroke-linecap="round" stroke-linejoin="round"/>
<path d="M11.953 20.5L22.572 2.111" stroke="white" stroke-width="4" stroke-linecap="round" stroke-linejoin="round"/>
<path d="M16.2265 27.9L5.60751 9.51099" stroke="white" stroke-width="4" stroke-linecap="round" stroke-linejoin="round"/>
<path d="M24.7735 27.9H3.53552" stroke="white" stroke-width="4" stroke-linecap="round" stroke-linejoin="round"/>
<path d="M29.047 20.5L18.428 38.889" stroke="white" stroke-width="4" stroke-linecap="round" stroke-linejoin="round"/>
<path d="M67.5057 34.324C65.0577 34.324 62.9097 33.796 61.0617 32.74C59.2377 31.684 57.8337 30.172 56.8497 28.204C55.8657 26.236 55.3737 23.932 55.3737 21.292C55.3737 18.652 55.8657 16.36 56.8497 14.416C57.8337 12.448 59.2377 10.936 61.0617 9.88C62.9097 8.824 65.0577 8.296 67.5057 8.296C69.0897 8.296 70.5777 8.536 71.9697 9.016C73.3617 9.472 74.5977 10.144 75.6777 11.032C75.9897 11.272 76.2057 11.524 76.3257 11.788C76.4457 12.052 76.5057 12.376 76.5057 12.76C76.5057 13.288 76.3617 13.732 76.0737 14.092C75.7857 14.452 75.4377 14.632 75.0297 14.632C74.5497 14.632 74.0577 14.464 73.5537 14.128C72.5217 13.36 71.5617 12.832 70.6737 12.544C69.7857 12.232 68.8017 12.076 67.7217 12.076C65.2257 12.076 63.3297 12.856 62.0337 14.416C60.7617 15.976 60.1257 18.268 60.1257 21.292C60.1257 24.34 60.7617 26.644 62.0337 28.204C63.3297 29.764 65.2257 30.544 67.7217 30.544C68.7537 30.544 69.7017 30.388 70.5657 30.076C71.4537 29.764 72.4497 29.236 73.5537 28.492C73.7937 28.348 74.0337 28.228 74.2737 28.132C74.5137 28.036 74.7657 27.988 75.0297 27.988C75.4377 27.988 75.7857 28.168 76.0737 28.528C76.3617 28.888 76.5057 29.332 76.5057 29.86C76.5057 30.22 76.4457 30.544 76.3257 30.832C76.2057 31.096 75.9897 31.348 75.6777 31.588C74.5977 32.476 73.3617 33.16 71.9697 33.64C70.5777 34.096 69.0897 34.324 67.5057 34.324ZM91.4111 34.324C88.9391 34.324 86.7911 33.796 84.9671 32.74C83.1671 31.684 81.7751 30.172 80.7911 28.204C79.8071 26.236 79.3151 23.932 79.3151 21.292C79.3151 18.652 79.7951 16.36 80.7551 14.416C81.7391 12.448 83.1431 10.936 84.9671 9.88C86.7911 8.824 88.9391 8.296 91.4111 8.296C93.8831 8.296 96.0191 8.824 97.8191 9.88C99.6431 10.936 101.035 12.448 101.995 14.416C102.979 16.36 103.471 18.652 103.471 21.292C103.471 23.932 102.979 26.236 101.995 28.204C101.011 30.172 99.6071 31.684 97.7831 32.74C95.9831 33.796 93.8591 34.324 91.4111 34.324ZM91.4111 30.616C93.7391 30.616 95.5511 29.812 96.8471 28.204C98.1671 26.596 98.8271 24.292 98.8271 21.292C98.8271 18.292 98.1671 16 96.8471 14.416C95.5511 12.808 93.7391 12.004 91.4111 12.004C89.0591 12.004 87.2231 12.808 85.9031 14.416C84.6071 16 83.9591 18.292 83.9591 21.292C83.9591 24.292 84.6071 26.596 85.9031 28.204C87.2231 29.812 89.0591 30.616 91.4111 30.616ZM119.466 34.324C116.994 34.324 114.846 33.796 113.022 32.74C111.222 31.684 109.83 30.172 108.846 28.204C107.862 26.236 107.37 23.932 107.37 21.292C107.37 18.652 107.85 16.36 108.81 14.416C109.794 12.448 111.198 10.936 113.022 9.88C114.846 8.824 116.994 8.296 119.466 8.296C121.938 8.296 124.074 8.824 125.874 9.88C127.698 10.936 129.09 12.448 130.05 14.416C131.034 16.36 131.526 18.652 131.526 21.292C131.526 23.932 131.034 26.236 130.05 28.204C129.066 30.172 127.662 31.684 125.838 32.74C124.038 33.796 121.914 34.324 119.466 34.324ZM119.466 30.616C121.794 30.616 123.606 29.812 124.902 28.204C126.222 26.596 126.882 24.292 126.882 21.292C126.882 18.292 126.222 16 124.902 14.416C123.606 12.808 121.794 12.004 119.466 12.004C117.114 12.004 115.278 12.808 113.958 14.416C112.662 16 112.014 18.292 112.014 21.292C112.014 24.292 112.662 26.596 113.958 28.204C115.278 29.812 117.114 30.616 119.466 30.616ZM155.908 30.508C156.388 30.964 156.628 31.48 156.628 32.056C156.628 32.608 156.412 33.1 155.98 33.532C155.572 33.94 155.08 34.144 154.504 34.144C153.904 34.144 153.352 33.892 152.848 33.388L140.86 22.156V31.876C140.86 32.572 140.644 33.136 140.212 33.568C139.804 34 139.24 34.216 138.52 34.216C137.824 34.216 137.26 34 136.828 33.568C136.42 33.136 136.216 32.572 136.216 31.876V10.744C136.216 10.048 136.42 9.496 136.828 9.088C137.26 8.656 137.824 8.44 138.52 8.44C139.24 8.44 139.804 8.656 140.212 9.088C140.644 9.496 140.86 10.048 140.86 10.744V19.996L152.452 9.124C152.884 8.692 153.376 8.476 153.928 8.476C154.48 8.476 154.96 8.692 155.368 9.124C155.8 9.532 156.016 10.012 156.016 10.564C156.016 11.116 155.776 11.62 155.296 12.076L145.612 20.932L155.908 30.508ZM162.286 34.216C161.59 34.216 161.026 34 160.594 33.568C160.186 33.136 159.982 32.572 159.982 31.876V10.744C159.982 10.048 160.186 9.496 160.594 9.088C161.026 8.656 161.59 8.44 162.286 8.44C163.006 8.44 163.57 8.656 163.978 9.088C164.41 9.496 164.626 10.048 164.626 10.744V31.876C164.626 32.572 164.41 33.136 163.978 33.568C163.57 34 163.006 34.216 162.286 34.216ZM172.339 34C171.643 34 171.091 33.808 170.683 33.424C170.299 33.04 170.107 32.5 170.107 31.804V10.816C170.107 10.12 170.299 9.58 170.683 9.196C171.091 8.812 171.643 8.62 172.339 8.62H185.335C186.031 8.62 186.571 8.776 186.955 9.088C187.339 9.4 187.531 9.844 187.531 10.42C187.531 11.02 187.339 11.488 186.955 11.824C186.571 12.136 186.031 12.292 185.335 12.292H174.643V19.276H184.615C185.311 19.276 185.851 19.432 186.235 19.744C186.619 20.056 186.811 20.512 186.811 21.112C186.811 21.688 186.619 22.132 186.235 22.444C185.851 22.756 185.311 22.912 184.615 22.912H174.643V30.328H185.335C186.031 30.328 186.571 30.496 186.955 30.832C187.339 31.144 187.531 31.6 187.531 32.2C187.531 32.776 187.339 33.22 186.955 33.532C186.571 33.844 186.031 34 185.335 34H172.339Z" fill="white"/>
</svg>
